<?xml version="1.0" ?>
<mxfile host="app.diagrams.net">
	<diagram name="Page Hierarchy" id="hierarchy">
		<mxGraphModel dx="1112" dy="652" grid="1" gridSize="10" guides="1" tooltips="1" connect="1" arrows="1" fold="1" page="1" pageScale="1" pageWidth="827" pageHeight="1169">
			<root>
				<mxCell id="0"/>
				<mxCell id="1" parent="0"/>
				<mxCell id="pair" value="Pair Page (/pair)" style="rounded=1;whiteSpace=wrap;html=1;fillColor=#e6f7ff;" vertex="1" parent="1">
					<mxGeometry x="400" y="40" width="180" height="50" as="geometry"/>
				</mxCell>
				<mxCell id="login" value="Login Page (/login)" style="rounded=1;whiteSpace=wrap;html=1;fillColor=#e6f7ff;" vertex="1" parent="1">
					<mxGeometry x="200" y="140" width="180" height="50" as="geometry"/>
				</mxCell>
				<mxCell id="register" value="Register Page (/register)" style="rounded=1;whiteSpace=wrap;html=1;fillColor=#e6f7ff;" vertex="1" parent="1">
					<mxGeometry x="600" y="140" width="180" height="50" as="geometry"/>
				</mxCell>
				<mxCell id="dashboard" value="Dashboard (/dashboard)" style="rounded=1;whiteSpace=wrap;html=1;fillColor=#e6f7ff;" vertex="1" parent="1">
					<mxGeometry x="400" y="240" width="180" height="50" as="geometry"/>
				</mxCell>
				<mxCell id="add_device" value="Add Device Form" style="rounded=1;whiteSpace=wrap;html=1;fillColor=#e6f7ff;" vertex="1" parent="1">
					<mxGeometry x="150" y="340" width="180" height="50" as="geometry"/>
				</mxCell>
				<mxCell id="add_folder" value="Add Folder Modal" style="rounded=1;whiteSpace=wrap;html=1;fillColor=#e6f7ff;" vertex="1" parent="1">
					<mxGeometry x="350" y="340" width="180" height="50" as="geometry"/>
				</mxCell>
				<mxCell id="alerts" value="Folder Share Alerts" style="rounded=1;whiteSpace=wrap;html=1;fillColor=#e6f7ff;" vertex="1" parent="1">
					<mxGeometry x="550" y="340" width="180" height="50" as="geometry"/>
				</mxCell>
				<mxCell id="submit_folder" value="/submit_folder" style="rounded=1;whiteSpace=wrap;html=1;fillColor=#e6f7ff;" vertex="1" parent="1">
					<mxGeometry x="350" y="440" width="180" height="50" as="geometry"/>
				</mxCell>
				<mxCell id="accept_share" value="/accept_share" style="rounded=1;whiteSpace=wrap;html=1;fillColor=#e6f7ff;" vertex="1" parent="1">
					<mxGeometry x="550" y="440" width="180" height="50" as="geometry"/>
				</mxCell>
				<mxCell id="stats" value="/get_storage_stats" style="rounded=1;whiteSpace=wrap;html=1;fillColor=#e6f7ff;" vertex="1" parent="1">
					<mxGeometry x="750" y="240" width="180" height="50" as="geometry"/>
				</mxCell>
				<mxCell id="logout" value="Logout / Unpair" style="rounded=1;whiteSpace=wrap;html=1;fillColor=#e6f7ff;" vertex="1" parent="1">
					<mxGeometry x="50" y="240" width="180" height="50" as="geometry"/>
				</mxCell>
				<mxCell id="e1" value="" style="endArrow=block;html=1;rounded=1;" edge="1" parent="1" source="pair" target="login">
					<mxGeometry relative="1" as="geometry"/>
				</mxCell>
				<mxCell id="e2" value="" style="endArrow=block;html=1;rounded=1;" edge="1" parent="1" source="pair" target="register">
					<mxGeometry relative="1" as="geometry"/>
				</mxCell>
				<mxCell id="e3" value="" style="endArrow=block;html=1;rounded=1;" edge="1" parent="1" source="login" target="dashboard">
					<mxGeometry relative="1" as="geometry"/>
				</mxCell>
				<mxCell id="e4" value="" style="endArrow=block;html=1;rounded=1;" edge="1" parent="1" source="register" target="dashboard">
					<mxGeometry relative="1" as="geometry"/>
				</mxCell>
				<mxCell id="e5" value="" style="endArrow=block;html=1;rounded=1;" edge="1" parent="1" source="dashboard" target="add_device">
					<mxGeometry relative="1" as="geometry"/>
				</mxCell>
				<mxCell id="e6" value="" style="endArrow=block;html=1;rounded=1;" edge="1" parent="1" source="dashboard" target="add_folder">
					<mxGeometry relative="1" as="geometry"/>
				</mxCell>
				<mxCell id="e7" value="" style="endArrow=block;html=1;rounded=1;" edge="1" parent="1" source="dashboard" target="alerts">
					<mxGeometry relative="1" as="geometry"/>
				</mxCell>
				<mxCell id="e8" value="" style="endArrow=block;html=1;rounded=1;" edge="1" parent="1" source="add_folder" target="submit_folder">
					<mxGeometry relative="1" as="geometry"/>
				</mxCell>
				<mxCell id="e9" value="" style="endArrow=block;html=1;rounded=1;" edge="1" parent="1" source="alerts" target="accept_share">
					<mxGeometry relative="1" as="geometry"/>
				</mxCell>
				<mxCell id="e10" value="" style="endArrow=block;html=1;rounded=1;" edge="1" parent="1" source="dashboard" target="stats">
					<mxGeometry relative="1" as="geometry"/>
				</mxCell>
				<mxCell id="e11" value="" style="endArrow=block;html=1;rounded=1;" edge="1" parent="1" source="dashboard" target="logout">
					<mxGeometry relative="1" as="geometry"/>
				</mxCell>
			</root>
		</mxGraphModel>
	</diagram>
</mxfile>
